<svg width="17" height="17" viewBox="0 0 17 17" fill="none" xmlns="http://www.w3.org/2000/svg">
<path d="M16.9452 5.01763C16.9349 4.30419 16.8027 3.59641 16.5497 2.92915C16.107 1.78972 15.2054 0.888735 14.0641 0.447666C13.4042 0.199801 12.7066 0.0669144 12.0004 0.0518351C11.0923 0.0113095 10.8044 0 8.49906 0C6.19375 0 5.89827 6.31965e-08 4.99672 0.0518351C4.29154 0.0669144 3.5939 0.199801 2.93403 0.447666C1.7927 0.888735 0.890215 1.78972 0.448412 2.92915C0.200133 3.58793 0.0660817 4.2844 0.0528654 4.98841C0.0122723 5.896 0 6.18345 0 8.48492C0 10.7864 -7.03353e-09 11.0804 0.0528654 11.9814C0.0670258 12.6864 0.200133 13.3819 0.448412 14.0426C0.891159 15.1811 1.7927 16.0821 2.93497 16.5231C3.59201 16.7795 4.28965 16.9246 4.99767 16.9472C5.90676 16.9877 6.19469 17 8.5 17C10.8053 17 11.1008 17 12.0023 16.9472C12.7075 16.9331 13.4052 16.8002 14.066 16.5523C15.2073 16.1103 16.1088 15.2093 16.5516 14.0709C16.7999 13.4111 16.933 12.7156 16.9471 12.0097C16.9877 11.1031 17 10.8156 17 8.5132C16.9981 6.21172 16.9981 5.91956 16.9452 5.01763ZM8.49339 12.8372C6.08235 12.8372 4.12916 10.8872 4.12916 8.48021C4.12916 6.07318 6.08235 4.12324 8.49339 4.12324C10.9025 4.12324 12.8576 6.07318 12.8576 8.48021C12.8576 10.8872 10.9025 12.8372 8.49339 12.8372ZM13.0313 4.97805C12.4677 4.97805 12.0137 4.52378 12.0137 3.96208C12.0137 3.40038 12.4677 2.94611 13.0313 2.94611C13.593 2.94611 14.048 3.40038 14.048 3.96208C14.048 4.52378 13.593 4.97805 13.0313 4.97805Z" fill="#DB2A41"/>
<path d="M8.49329 11.3105C10.059 11.3105 11.3282 10.0434 11.3282 8.48034C11.3282 6.91727 10.059 5.65015 8.49329 5.65015C6.92762 5.65015 5.65839 6.91727 5.65839 8.48034C5.65839 10.0434 6.92762 11.3105 8.49329 11.3105Z" fill="#DB2A41"/>
</svg>
