<svg width="22" height="17" viewBox="0 0 22 17" fill="none" xmlns="http://www.w3.org/2000/svg">
<path d="M21.5525 2.67279C21.2996 1.63182 20.5577 0.810456 19.6156 0.530197C17.8942 0.00850168 11.0076 9.21642e-06 11.0076 9.21642e-06C11.0076 9.21642e-06 4.12209 -0.00848374 2.3996 0.49016C1.47626 0.767993 0.713397 1.60756 0.458378 2.64731C0.0043987 4.54725 1.61052e-06 8.48787 1.61052e-06 8.48787C1.61052e-06 8.48787 -0.00439526 12.4479 0.446286 14.3284C0.699107 15.3682 1.44108 16.1895 2.38422 16.4698C4.12319 16.9915 10.9911 17 10.9911 17C10.9911 17 17.8778 17.0085 19.5991 16.5111C20.5401 16.232 21.2853 15.4119 21.5415 14.3721C21.9965 12.4734 21.9998 8.53397 21.9998 8.53397C21.9998 8.53397 22.0218 4.57273 21.5525 2.67279ZM8.80477 12.1385L8.81027 4.85905L14.5339 8.50485L8.80477 12.1385Z" fill="#DB2A41"/>
</svg>
