<svg width="17" height="17" viewBox="0 0 17 17" fill="none" xmlns="http://www.w3.org/2000/svg">
<path d="M16.0556 0H0.944444C0.422167 0 0 0.423111 0 0.944444V16.0556C0 16.5769 0.422167 17 0.944444 17H9.08083V10.4267H6.87272V7.85306H9.08083V5.96417C9.08083 3.76833 10.4219 2.57172 12.3864 2.57172C13.0466 2.56983 13.7077 2.60383 14.365 2.67278V4.95833H13.0097C11.9444 4.95833 11.7366 5.46644 11.7366 6.20972V7.84833H14.2838L13.9532 10.4219H11.7357V17H16.0556C16.5778 17 17 16.5769 17 16.0556V0.944444C17 0.423111 16.5778 0 16.0556 0Z" fill="#DB2A41"/>
</svg>
